<svg width="95" height="51" viewBox="0 0 95 51" fill="none" xmlns="http://www.w3.org/2000/svg">
<rect width="95" height="51" rx="25.5" fill="url(#paint0_radial_0_281)" fill-opacity="0.2"/>
<rect width="95" height="51" rx="25.5" fill="url(#paint1_linear_0_281)"/>
<rect x="1" y="1" width="93" height="49" rx="24.5" stroke="url(#paint2_radial_0_281)" stroke-opacity="0.5" stroke-width="2"/>
<path d="M65.3536 24.6464C65.5488 24.8417 65.5488 25.1583 65.3536 25.3536L62.1716 28.5355C61.9763 28.7308 61.6597 28.7308 61.4645 28.5355C61.2692 28.3403 61.2692 28.0237 61.4645 27.8284L64.2929 25L61.4645 22.1716C61.2692 21.9763 61.2692 21.6597 61.4645 21.4645C61.6597 21.2692 61.9763 21.2692 62.1716 21.4645L65.3536 24.6464ZM31 25L31 24.5L65 24.5L65 25L65 25.5L31 25.5L31 25Z" fill="white"/>
<defs>
<radialGradient id="paint0_radial_0_281" cx="0" cy="0" r="1" gradientUnits="userSpaceOnUse" gradientTransform="translate(50.4599 10.71) rotate(92.4535) scale(65.8504 51.227)">
<stop stop-color="white"/>
<stop offset="1" stop-color="white" stop-opacity="0"/>
</radialGradient>
<linearGradient id="paint1_linear_0_281" x1="89.5" y1="9" x2="77.4356" y2="63.4206" gradientUnits="userSpaceOnUse">
<stop stop-color="#BAD0E0"/>
<stop offset="1" stop-color="#8C9DB1"/>
</linearGradient>
<radialGradient id="paint2_radial_0_281" cx="0" cy="0" r="1" gradientUnits="userSpaceOnUse" gradientTransform="translate(49.538 3.86094e-06) rotate(90.7602) scale(35.4481 33.4253)">
<stop stop-color="white"/>
<stop offset="1" stop-color="white" stop-opacity="0"/>
</radialGradient>
</defs>
</svg>
